<?xml version="1.0" encoding="UTF-8"?>
<svg width="38px" height="16px" viewBox="0 0 38 16" version="1.1" xmlns="http://www.w3.org/2000/svg" xmlns:xlink="http://www.w3.org/1999/xlink">
    <!-- Generator: Sketch 40.1 (33804) - http://www.bohemiancoding.com/sketch -->
    <title>path0_fill</title>
    <desc>Created with Sketch.</desc>
    <defs></defs>
    <g id="Page-1" stroke="none" stroke-width="1" fill="none" fill-rule="evenodd">
        <g id="copy" fill="#FFFFFF">
            <g id="Canvas">
                <g id="COPY">
                    <g id="path0_fill-link">
                        <path d="M4.475,15.8401 C3.8496,15.8401 3.299,15.7515 2.8231,15.5745 C2.3472,15.3974 1.95706,15.1539 1.65269,14.844 C1.34833,14.5286 1.09931,14.1384 0.90562,13.6736 C0.71747,13.2032 0.58466,12.7024 0.50719,12.1711 C0.42971,11.6399 0.39098,11.0395 0.39098,10.3699 L0.39098,6.1282 C0.39098,5.4586 0.42971,4.85815 0.50719,4.3269 C0.58466,3.79565 0.71747,3.29761 0.90562,2.83276 C1.09931,2.36239 1.34833,1.97225 1.65269,1.66235 C1.95706,1.35246 2.3472,1.10897 2.8231,0.93188 C3.299,0.7548 3.8496,0.66626 4.475,0.66626 C5.1667,0.66626 5.7643,0.76864 6.2679,0.97339 C6.7715,1.17814 7.1727,1.47974 7.4715,1.87817 C7.7759,2.27661 8.0028,2.73869 8.1522,3.2644 C8.3072,3.79012 8.3985,4.40438 8.4261,5.1072 C8.4317,5.2123 8.4344,5.3756 8.4344,5.5969 L6.3094,5.5969 L6.3094,5.1238 C6.3039,4.83048 6.2928,4.58146 6.2762,4.37671 C6.2596,4.16642 6.2292,3.9506 6.1849,3.72925 C6.1407,3.50789 6.0742,3.32528 5.9857,3.1814 C5.9027,3.03198 5.7948,2.8964 5.662,2.77466 C5.5347,2.64738 5.3714,2.55607 5.1722,2.50073 C4.973,2.43986 4.7406,2.40942 4.475,2.40942 C4.1319,2.40942 3.8358,2.46476 3.5868,2.57544 C3.3433,2.68612 3.1524,2.83 3.014,3.00708 C2.8757,3.17863 2.7678,3.41105 2.6903,3.70435 C2.6184,3.99764 2.5713,4.2854 2.5492,4.56763 C2.527,4.84432 2.516,5.1874 2.516,5.5969 L2.516,10.9094 C2.516,11.2636 2.5298,11.5846 2.5575,11.8723 C2.5907,12.1601 2.6516,12.4478 2.7401,12.7356 C2.8286,13.0178 2.9421,13.2558 3.0804,13.4495 C3.2243,13.6431 3.4125,13.8009 3.6449,13.9226 C3.8828,14.0388 4.1595,14.0969 4.475,14.0969 C4.7904,14.0969 5.0615,14.0361 5.2884,13.9143 C5.5153,13.7926 5.6924,13.6376 5.8197,13.4495 C5.9525,13.2613 6.0549,13.0206 6.1268,12.7273 C6.2043,12.434 6.2541,12.149 6.2762,11.8723 C6.2984,11.5956 6.3094,11.2747 6.3094,10.9094 L6.3094,10.3782 L8.4344,10.3782 L8.4344,10.9094 C8.4344,11.6786 8.3653,12.3538 8.2269,12.9348 C8.0941,13.5159 7.8755,14.0305 7.5712,14.4788 C7.2723,14.9215 6.8628,15.259 6.3426,15.4915 C5.828,15.7239 5.2054,15.8401 4.475,15.8401 L4.475,15.8401 Z M14.3688,15.8401 C13.6218,15.8401 12.9798,15.7266 12.443,15.4998 C11.9118,15.2729 11.4885,14.9408 11.173,14.5037 C10.8576,14.0665 10.6279,13.5546 10.4841,12.968 C10.3402,12.3759 10.2682,11.6897 10.2682,10.9094 L10.2682,5.5139 C10.2682,4.73364 10.3402,4.05298 10.4841,3.47192 C10.6279,2.89087 10.8576,2.38729 11.173,1.96118 C11.4885,1.52954 11.9118,1.20581 12.443,0.98999 C12.9798,0.77417 13.6218,0.66626 14.3688,0.66626 C15.8187,0.66626 16.8646,1.0813 17.5065,1.91138 C18.1485,2.74146 18.4694,3.9423 18.4694,5.5139 L18.4694,10.9094 C18.4694,11.6786 18.3947,12.3593 18.2453,12.9514 C18.1014,13.538 17.8718,14.0527 17.5563,14.4954 C17.2409,14.9325 16.8148,15.2673 16.278,15.4998 C15.7468,15.7266 15.1104,15.8401 14.3688,15.8401 L14.3688,15.8401 Z M12.8166,13.4246 C13.1043,13.8728 13.6218,14.0969 14.3688,14.0969 C15.1159,14.0969 15.6305,13.8728 15.9128,13.4246 C16.2005,12.9763 16.3444,12.315 16.3444,11.4407 L16.3444,4.98267 C16.3444,4.11938 16.2033,3.47469 15.9211,3.04858 C15.6388,2.62248 15.1214,2.40942 14.3688,2.40942 C13.6162,2.40942 13.0988,2.62248 12.8166,3.04858 C12.5344,3.47469 12.3932,4.11938 12.3932,4.98267 L12.3932,11.4407 C12.3932,12.315 12.5344,12.9763 12.8166,13.4246 L12.8166,13.4246 Z M23.1338,7.1907 L23.665,7.1907 C24.1465,7.1907 24.5394,7.163 24.8438,7.1077 C25.1536,7.0523 25.4248,6.95 25.6572,6.8005 C25.8952,6.6456 26.064,6.427 26.1636,6.1448 C26.2687,5.8625 26.3213,5.5028 26.3213,5.0657 C26.3213,4.53442 26.2826,4.10555 26.2051,3.77905 C26.1276,3.44702 25.9837,3.17586 25.7734,2.96558 C25.5687,2.75529 25.3003,2.61141 24.9683,2.53394 C24.6418,2.45093 24.2074,2.40942 23.665,2.40942 L23.1338,2.40942 L23.1338,7.1907 L23.1338,7.1907 Z M21.0088,15.6907 L21.0088,0.81567 L24.7275,0.81567 C27.2067,0.81567 28.4463,2.23234 28.4463,5.0657 C28.4463,6.2776 28.1253,7.2017 27.4834,7.8381 C26.847,8.469 25.9284,8.7844 24.7275,8.7844 L23.1338,8.7844 L23.1338,15.6907 L21.0088,15.6907 L21.0088,15.6907 Z M32.4383,15.6907 L32.4383,10.9094 L29.2508,0.81567 L31.3758,0.81567 L33.5008,8.2532 L35.6258,0.81567 L37.7508,0.81567 L34.5633,10.9094 L34.5633,15.6907 L32.4383,15.6907 L32.4383,15.6907 Z" id="path0_fill"></path>
                    </g>
                </g>
            </g>
        </g>
    </g>
</svg>