<?xml version="1.0" encoding="UTF-8" standalone="no"?>
<svg width="52px" height="43px" viewBox="0 0 52 43" version="1.1" xmlns="http://www.w3.org/2000/svg" xmlns:xlink="http://www.w3.org/1999/xlink" xmlns:sketch="http://www.bohemiancoding.com/sketch/ns">
    <!-- Generator: Sketch 3.3.3 (12072) - http://www.bohemiancoding.com/sketch -->
    <title>Shape</title>
    <desc>Created with Sketch.</desc>
    <defs></defs>
    <g id="Page-1" stroke="none" stroke-width="1" fill="none" fill-rule="evenodd" sketch:type="MSPage">
        <g id="panda" sketch:type="MSLayerGroup" transform="translate(1.000000, 1.000000)" stroke-width="2" stroke="#FFFFFF" fill="#FFFFFF">
            <g id="Page-1" sketch:type="MSShapeGroup">
                <g id="panda-outline">
                    <g id="Page-1">
                        <g id="panda-outline">
                            <path d="M35.8505901,2.86829268 C32.6963415,1.34826908 29.0850511,0.485326515 25.2476397,0.485326515 C21.2689614,0.485326515 17.5333989,1.41294256 14.2982691,3.03878836 C12.8314319,1.1875295 10.563454,0 8.01805665,0 C3.59527931,0 0.00995279308,3.58536585 0.00995279308,8.00810386 C0.00995279308,10.8856806 1.52769473,13.408812 3.80637293,14.820535 C3.23064516,16.5861526 2.92199056,18.4531078 2.92199056,20.3842644 C2.92199056,31.3741542 12.9175059,40.2832022 25.2476397,40.2832022 C37.5777734,40.2832022 47.5732887,31.3741542 47.5732887,20.3842644 C47.5732887,18.356963 47.2331629,16.4004721 46.6009835,14.5576711 C48.6570024,13.1081432 50,10.7149489 50,8.00810386 C50,3.58532651 46.4146341,5.0313805e-15 41.9918961,5.0313805e-15 C39.5255311,5.0313805e-15 37.3196302,1.11494886 35.8506294,2.86829268 L35.8505901,2.86829268 L35.8505901,2.86829268 Z M36.3031078,5.89543666 C33.14107,4.01101495 29.338513,2.91203777 25.2476397,2.91203777 C20.9826121,2.91203777 17.0309992,4.10656963 13.7918568,6.14032258 C13.0042093,3.70365854 10.7169158,1.9413454 8.01805665,1.9413454 C4.66746656,1.9413454 1.95129819,4.65751377 1.95129819,8.00810386 C1.95129819,10.9445319 4.03749017,13.3937057 6.80861526,13.954288 C5.86730921,16.0137687 5.34870181,18.2664437 5.34870181,20.6269473 C5.34870181,30.4106216 14.2577498,38.3418568 25.2476397,38.3418568 C36.2375295,38.3418568 45.1465775,30.4106216 45.1465775,20.6269473 C45.1465775,18.1806452 44.5895751,15.850118 43.5823367,13.7304485 C46.0674666,12.8982691 48.0586153,10.6504721 48.0586153,8.00806452 C48.0586153,4.65747443 45.3424469,1.94130606 41.9918568,1.94130606 C39.3842644,1.94130606 37.1609363,3.58642801 36.3031078,5.89535799 L36.3031078,5.89543666 L36.3031078,5.89543666 Z" id="Shape"></path>
                        </g>
                    </g>
                </g>
            </g>
        </g>
    </g>
</svg>